<svg width="800" height="600" xmlns="http://www.w3.org/2000/svg">
<rect width="100%" height="100%" fill="#f8f9fa"/>
<text x="400" y="30" text-anchor="middle" font-family="Arial" font-size="20" font-weight="bold" fill="#333">🌳 Complexity Tree Visualization</text>
<path d="M 370.0,550.0 L 430.0,550.0 L 418.0,350.0 L 382.0,350.0 Z" fill="#8B4513" stroke="#654321" stroke-width="2"/>
<line x1="400.0" y1="500.0" x2="470.7" y2="429.3" stroke="#8B4513" stroke-width="8.0"/>
<path d="M 408.6,468.4 L 412.6,470.4 L 418.6,474.4 L 414.6,478.4 L 416.6,482.4 L 408.6,480.4 L 400.6,482.4 L 402.6,478.4 Z%!(EXTRA float64=398.5702260395516, float64=474.4297739604484, float64=404.5702260395516, float64=470.4297739604484, float64=408.5702260395516, float64=468.4297739604484)" fill="#f8d7da" stroke="#dc3545" stroke-width="1"/>
<title>SuperComplexProcessor (complexity: 23)</title>
<path d="M 447.1,454.9 L 451.1,456.9 L 457.1,460.9 L 453.1,464.9 L 455.1,468.9 L 447.1,466.9 L 439.1,468.9 L 441.1,464.9 Z%!(EXTRA float64=437.14045207910317, float64=460.85954792089683, float64=443.14045207910317, float64=456.85954792089683, float64=447.14045207910317, float64=454.85954792089683)" fill="#f8d7da" stroke="#dc3545" stroke-width="1"/>
<title>ComplexValidation (complexity: 18)</title>
<line x1="400.0" y1="450.0" x2="514.7" y2="530.3" stroke="#8B4513" stroke-width="7.5"/>
<path d="M 401.4,449.5 Q 409.4,453.5 413.4,461.5 Q 409.4,469.5 401.4,467.5 Q 393.4,469.5 389.4,461.5 Z%!(EXTRA float64=393.38304088577985, float64=453.47152872702094, float64=401.38304088577985, float64=449.47152872702094)" fill="#d4edda" stroke="#28a745" stroke-width="1"/>
<title>CheckPositive (complexity: 2)</title>
<path d="M 432.8,470.9 Q 440.8,474.9 444.8,482.9 Q 440.8,490.9 432.8,488.9 Q 424.8,490.9 420.8,482.9 Z%!(EXTRA float64=424.7660817715597, float64=474.9430574540418, float64=432.7660817715597, float64=470.9430574540418)" fill="#d4edda" stroke="#28a745" stroke-width="1"/>
<title>GetGrade (complexity: 4)</title>
<path d="M 464.1,472.4 Q 472.1,476.4 476.1,484.4 Q 472.1,492.4 464.1,490.4 Q 456.1,492.4 452.1,484.4 Z%!(EXTRA float64=456.14912265733955, float64=476.41458618106276, float64=464.14912265733955, float64=472.41458618106276)" fill="#d4edda" stroke="#28a745" stroke-width="1"/>
<title>ProcessNumbers (complexity: 3)</title>
<path d="M 450.5,493.9 Q 458.5,497.9 462.5,505.9 Q 458.5,513.9 450.5,511.9 Q 442.5,513.9 438.5,505.9 Z%!(EXTRA float64=442.53216354311934, float64=497.88611490808364, float64=450.53216354311934, float64=493.88611490808364)" fill="#d4edda" stroke="#28a745" stroke-width="1"/>
<title>SimpleFunction (complexity: 1)</title>
<path d="M 481.9,495.4 Q 489.9,499.4 493.9,507.4 Q 489.9,515.4 481.9,513.4 Q 473.9,515.4 469.9,507.4 Z%!(EXTRA float64=473.9152044288992, float64=499.3576436351046, float64=481.9152044288992, float64=495.3576436351046)" fill="#d4edda" stroke="#28a745" stroke-width="1"/>
<title>AddTwoNumbers (complexity: 1)</title>
<path d="M 513.3,516.8 Q 521.3,520.8 525.3,528.8 Q 521.3,536.8 513.3,534.8 Q 505.3,536.8 501.3,528.8 Z%!(EXTRA float64=505.298245314679, float64=520.8291723621255, float64=513.298245314679, float64=516.8291723621255)" fill="#d4edda" stroke="#28a745" stroke-width="1"/>
<title>GreetUser (complexity: 1)</title>
<line x1="400.0" y1="400.0" x2="517.8" y2="345.1" stroke="#8B4513" stroke-width="7.0"/>
<path d="M 404.6,380.8 Q 414.6,384.8 418.6,392.8 Q 410.6,400.8 404.6,398.8 Q 398.6,400.8 390.6,392.8 Z%!(EXTRA float64=394.63666871912744, float64=384.8432709956182, float64=404.63666871912744, float64=380.8432709956182)" fill="#fff3cd" stroke="#ffc107" stroke-width="1"/>
<title>ValidateInput (complexity: 7)</title>
<path d="M 439.3,381.7 Q 449.3,385.7 453.3,393.7 Q 445.3,401.7 439.3,399.7 Q 433.3,401.7 425.3,393.7 Z%!(EXTRA float64=429.2733374382548, float64=385.68654199123637, float64=439.2733374382548, float64=381.68654199123637)" fill="#fff3cd" stroke="#ffc107" stroke-width="1"/>
<title>CalculateDiscount (complexity: 6)</title>
<path d="M 473.9,360.5 Q 481.9,364.5 485.9,372.5 Q 481.9,380.5 473.9,378.5 Q 465.9,380.5 461.9,372.5 Z%!(EXTRA float64=465.91000615738227, float64=364.5298129868545, float64=473.91000615738227, float64=360.5298129868545)" fill="#d4edda" stroke="#28a745" stroke-width="1"/>
<title>FindPattern (complexity: 5)</title>
<path d="M 463.5,363.4 Q 473.5,367.4 477.5,375.4 Q 469.5,383.4 463.5,381.4 Q 457.5,383.4 449.5,375.4 Z%!(EXTRA float64=453.5466748765097, float64=367.3730839824727, float64=463.5466748765097, float64=363.3730839824727)" fill="#fff3cd" stroke="#ffc107" stroke-width="1"/>
<title>ProcessMatrix (complexity: 7)</title>
<path d="M 498.2,346.2 L 502.2,348.2 L 508.2,352.2 L 504.2,356.2 L 506.2,360.2 L 498.2,358.2 L 490.2,360.2 L 492.2,356.2 Z%!(EXTRA float64=488.1833435956371, float64=352.21635497809086, float64=494.1833435956371, float64=348.21635497809086, float64=498.1833435956371, float64=346.21635497809086)" fill="#f8d7da" stroke="#dc3545" stroke-width="1"/>
<title>ValidateAndProcess (complexity: 13)</title>
</svg>
