<svg width="800" height="600" xmlns="http://www.w3.org/2000/svg">
<rect width="100%" height="100%" fill="#f8f9fa"/>
<text x="400" y="30" text-anchor="middle" font-family="Arial" font-size="20" font-weight="bold" fill="#333">🌳 Complexity Tree Visualization</text>
<path d="M 370.0,550.0 L 430.0,550.0 L 418.0,350.0 L 382.0,350.0 Z" fill="#8B4513" stroke="#654321" stroke-width="2"/>
<path d="M 370.0,550.0 Q 372.0,450.0 382.0,350.0" fill="none" stroke="#654321" stroke-width="1" opacity="0.6"/>
<path d="M 385.0,550.0 Q 392.0,450.0 391.0,350.0" fill="none" stroke="#654321" stroke-width="1" opacity="0.6"/>
<path d="M 400.0,550.0 Q 396.0,450.0 400.0,350.0" fill="none" stroke="#654321" stroke-width="1" opacity="0.6"/>
<path d="M 415.0,550.0 Q 416.0,450.0 409.0,350.0" fill="none" stroke="#654321" stroke-width="1" opacity="0.6"/>
<path d="M 430.0,550.0 Q 420.0,450.0 418.0,350.0" fill="none" stroke="#654321" stroke-width="1" opacity="0.6"/>
<line x1="371.5" y1="525.0" x2="428.5" y2="525.0" stroke="#654321" stroke-width="0.8" opacity="0.4"/>
<line x1="375.0" y1="500.0" x2="425.0" y2="500.0" stroke="#654321" stroke-width="0.8" opacity="0.4"/>
<line x1="372.5" y1="475.0" x2="427.5" y2="475.0" stroke="#654321" stroke-width="0.8" opacity="0.4"/>
<line x1="376.0" y1="450.0" x2="424.0" y2="450.0" stroke="#654321" stroke-width="0.8" opacity="0.4"/>
<line x1="379.5" y1="425.0" x2="420.5" y2="425.0" stroke="#654321" stroke-width="0.8" opacity="0.4"/>
<line x1="377.0" y1="400.0" x2="423.0" y2="400.0" stroke="#654321" stroke-width="0.8" opacity="0.4"/>
<line x1="380.5" y1="375.0" x2="419.5" y2="375.0" stroke="#654321" stroke-width="0.8" opacity="0.4"/>
<ellipse cx="392.0" cy="490.0" rx="4.0" ry="2.8" fill="#654321" opacity="0.8"/>
<ellipse cx="391.5" cy="489.5" rx="2.4" ry="1.6" fill="#A0522D" opacity="0.6"/>
<ellipse cx="412.0" cy="430.0" rx="3.0" ry="2.1" fill="#654321" opacity="0.8"/>
<ellipse cx="411.5" cy="429.5" rx="1.8" ry="1.2" fill="#A0522D" opacity="0.6"/>
<ellipse cx="394.0" cy="390.0" rx="2.0" ry="1.4" fill="#654321" opacity="0.8"/>
<ellipse cx="393.5" cy="389.5" rx="1.2" ry="0.8" fill="#A0522D" opacity="0.6"/>
<rect x="381.0" y="502.5" width="8.0" height="15.0" rx="2" ry="2" fill="#654321" opacity="0.5"/>
<rect x="407.0" y="464.0" width="6.0" height="12.0" rx="2" ry="2" fill="#654321" opacity="0.5"/>
<rect x="393.0" y="406.0" width="4.0" height="8.0" rx="2" ry="2" fill="#654321" opacity="0.5"/>
<line x1="400.0" y1="510.0" x2="807.0" y2="275.0" stroke="#8B4513" stroke-width="8.0"/>
<path d="M 395.2,492.1 Q 403.2,496.1 407.2,504.1 Q 403.2,512.1 395.2,510.1 Q 387.2,512.1 383.2,504.1 Q 387.2,496.1 395.2,492.1 Z" fill="#d4edda" stroke="#28a745" stroke-width="1"/>
<title>NewComplexityAnalyzer (complexity: 1)</title>
<path d="M 420.4,496.2 Q 428.4,500.2 432.4,508.2 Q 428.4,516.2 420.4,514.2 Q 412.4,516.2 408.4,508.2 Q 412.4,500.2 420.4,496.2 Z" fill="#d4edda" stroke="#28a745" stroke-width="1"/>
<title>(*ComplexityAnalyzer).AnalyzeDirectory (complexity: 5)</title>
<path d="M 445.5,480.4 Q 453.5,484.4 457.5,492.4 Q 453.5,500.4 445.5,498.4 Q 437.5,500.4 433.5,492.4 Q 437.5,484.4 445.5,480.4 Z" fill="#d4edda" stroke="#28a745" stroke-width="1"/>
<title>(*ComplexityAnalyzer).analyzeFile (complexity: 3)</title>
<path d="M 425.7,484.5 Q 433.7,488.5 437.7,496.5 Q 433.7,504.5 425.7,502.5 Q 417.7,504.5 413.7,496.5 Q 417.7,488.5 425.7,484.5 Z" fill="#d4edda" stroke="#28a745" stroke-width="1"/>
<title>(*ComplexityAnalyzer).GetComplexityLevel (complexity: 3)</title>
<path d="M 450.9,468.6 Q 458.9,472.6 462.9,480.6 Q 458.9,488.6 450.9,486.6 Q 442.9,488.6 438.9,480.6 Q 442.9,472.6 450.9,468.6 Z" fill="#d4edda" stroke="#28a745" stroke-width="1"/>
<title>(*ComplexityAnalyzer).GetComplexityColor (complexity: 4)</title>
<path d="M 476.1,474.8 Q 486.1,478.8 490.1,486.8 Q 482.1,494.8 476.1,492.8 Q 470.1,494.8 462.1,486.8 Q 466.1,478.8 476.1,474.8 Z" fill="#fff3cd" stroke="#ffc107" stroke-width="1"/>
<title>(*ComplexityAnalyzer).CalculatePackageComplexity (complexity: 8)</title>
<path d="M 456.2,456.9 Q 464.2,460.9 468.2,468.9 Q 464.2,476.9 456.2,474.9 Q 448.2,476.9 444.2,468.9 Q 448.2,460.9 456.2,456.9 Z" fill="#d4edda" stroke="#28a745" stroke-width="1"/>
<title>(*ComplexityAnalyzer).BuildComplexityTree (complexity: 3)</title>
<path d="M 481.4,461.0 Q 489.4,465.0 493.4,473.0 Q 489.4,481.0 481.4,479.0 Q 473.4,481.0 469.4,473.0 Q 473.4,465.0 481.4,461.0 Z" fill="#d4edda" stroke="#28a745" stroke-width="1"/>
<title>(*ComplexityTree).PrintTree (complexity: 1)</title>
<path d="M 506.6,447.1 Q 516.6,451.1 520.6,459.1 Q 512.6,467.1 506.6,465.1 Q 500.6,467.1 492.6,459.1 Q 496.6,451.1 506.6,447.1 Z" fill="#fff3cd" stroke="#ffc107" stroke-width="1"/>
<title>(*ComplexityTree).printNode (complexity: 6)</title>
<path d="M 486.8,449.2 Q 494.8,453.2 498.8,461.2 Q 494.8,469.2 486.8,467.2 Q 478.8,469.2 474.8,461.2 Q 478.8,453.2 486.8,449.2 Z" fill="#d4edda" stroke="#28a745" stroke-width="1"/>
<title>(*ComplexityTree).GetTreeStats (complexity: 3)</title>
<path d="M 511.9,435.4 Q 521.9,439.4 525.9,447.4 Q 517.9,455.4 511.9,453.4 Q 505.9,455.4 497.9,447.4 Q 501.9,439.4 511.9,435.4 Z" fill="#fff3cd" stroke="#ffc107" stroke-width="1"/>
<title>(*ComplexityAnalyzer).PrintComplexityReport (complexity: 6)</title>
<path d="M 537.1,439.5 Q 547.1,443.5 551.1,451.5 Q 543.1,459.5 537.1,457.5 Q 531.1,459.5 523.1,451.5 Q 527.1,443.5 537.1,439.5 Z" fill="#fff3cd" stroke="#ffc107" stroke-width="1"/>
<title>main (complexity: 9)</title>
<path d="M 517.3,421.6 Q 525.3,425.6 529.3,433.6 Q 525.3,441.6 517.3,439.6 Q 509.3,441.6 505.3,433.6 Q 509.3,425.6 517.3,421.6 Z" fill="#d4edda" stroke="#28a745" stroke-width="1"/>
<title>usage (complexity: 1)</title>
<path d="M 542.5,425.8 Q 550.5,429.8 554.5,437.8 Q 550.5,445.8 542.5,443.8 Q 534.5,445.8 530.5,437.8 Q 534.5,429.8 542.5,425.8 Z" fill="#d4edda" stroke="#28a745" stroke-width="1"/>
<title>NewSVGGenerator (complexity: 1)</title>
<path d="M 567.6,409.9 Q 575.6,413.9 579.6,421.9 Q 575.6,429.9 567.6,427.9 Q 559.6,429.9 555.6,421.9 Q 559.6,413.9 567.6,409.9 Z" fill="#d4edda" stroke="#28a745" stroke-width="1"/>
<title>(*SVGGenerator).GenerateSVG (complexity: 3)</title>
<path d="M 547.8,414.0 Q 555.8,418.0 559.8,426.0 Q 555.8,434.0 547.8,432.0 Q 539.8,434.0 535.8,426.0 Q 539.8,418.0 547.8,414.0 Z" fill="#d4edda" stroke="#28a745" stroke-width="1"/>
<title>(*SVGGenerator).drawTree (complexity: 5)</title>
<path d="M 573.0,400.1 Q 583.0,404.1 587.0,412.1 Q 579.0,420.1 573.0,418.1 Q 567.0,420.1 559.0,412.1 Q 563.0,404.1 573.0,400.1 Z" fill="#fff3cd" stroke="#ffc107" stroke-width="1"/>
<title>(*SVGGenerator).drawNode (complexity: 10)</title>
<path d="M 598.2,402.2 Q 606.2,406.2 610.2,414.2 Q 606.2,422.2 598.2,420.2 Q 590.2,422.2 586.2,414.2 Q 590.2,406.2 598.2,402.2 Z" fill="#d4edda" stroke="#28a745" stroke-width="1"/>
<title>(*SVGGenerator).drawNaturalTree (complexity: 2)</title>
<path d="M 578.3,388.4 Q 588.3,392.4 592.3,400.4 Q 584.3,408.4 578.3,406.4 Q 572.3,408.4 564.3,400.4 Q 568.3,392.4 578.3,388.4 Z" fill="#fff3cd" stroke="#ffc107" stroke-width="1"/>
<title>(*SVGGenerator).calculateBranchPositions (complexity: 6)</title>
<path d="M 603.5,390.5 Q 611.5,394.5 615.5,402.5 Q 611.5,410.5 603.5,408.5 Q 595.5,410.5 591.5,402.5 Q 595.5,394.5 603.5,390.5 Z" fill="#d4edda" stroke="#28a745" stroke-width="1"/>
<title>(*SVGGenerator).drawNaturalTrunk (complexity: 1)</title>
<path d="M 628.7,374.6 Q 636.7,378.6 640.7,386.6 Q 636.7,394.6 628.7,392.6 Q 620.7,394.6 616.7,386.6 Q 620.7,378.6 628.7,374.6 Z" fill="#d4edda" stroke="#28a745" stroke-width="1"/>
<title>(*SVGGenerator).drawTrunkTexture (complexity: 3)</title>
<path d="M 608.9,378.8 Q 616.9,382.8 620.9,390.8 Q 616.9,398.8 608.9,396.8 Q 600.9,398.8 596.9,390.8 Q 600.9,382.8 608.9,378.8 Z" fill="#d4edda" stroke="#28a745" stroke-width="1"/>
<title>(*SVGGenerator).addBarkDetails (complexity: 3)</title>
<path d="M 634.0,362.9 Q 642.0,366.9 646.0,374.9 Q 642.0,382.9 634.0,380.9 Q 626.0,382.9 622.0,374.9 Q 626.0,366.9 634.0,362.9 Z" fill="#d4edda" stroke="#28a745" stroke-width="1"/>
<title>(*SVGGenerator).drawNaturalBranch (complexity: 2)</title>
<path d="M 659.2,367.0 Q 667.2,371.0 671.2,379.0 Q 667.2,387.0 659.2,385.0 Q 651.2,387.0 647.2,379.0 Q 651.2,371.0 659.2,367.0 Z" fill="#d4edda" stroke="#28a745" stroke-width="1"/>
<title>(*SVGGenerator).drawLeavesOnBranch (complexity: 2)</title>
<path d="M 639.4,351.1 Q 647.4,355.1 651.4,363.1 Q 647.4,371.1 639.4,369.1 Q 631.4,371.1 627.4,363.1 Q 631.4,355.1 639.4,351.1 Z" fill="#d4edda" stroke="#28a745" stroke-width="1"/>
<title>(*SVGGenerator).drawNaturalLeaf (complexity: 4)</title>
<path d="M 664.6,355.2 Q 672.6,359.2 676.6,367.2 Q 672.6,375.2 664.6,373.2 Q 656.6,375.2 652.6,367.2 Q 656.6,359.2 664.6,355.2 Z" fill="#d4edda" stroke="#28a745" stroke-width="1"/>
<title>(*SVGGenerator).drawNaturalHealthyLeaf (complexity: 1)</title>
<path d="M 689.7,339.4 Q 697.7,343.4 701.7,351.4 Q 697.7,359.4 689.7,357.4 Q 681.7,359.4 677.7,351.4 Q 681.7,343.4 689.7,339.4 Z" fill="#d4edda" stroke="#28a745" stroke-width="1"/>
<title>(*SVGGenerator).drawNaturalCautionLeaf (complexity: 1)</title>
<path d="M 669.9,343.5 Q 677.9,347.5 681.9,355.5 Q 677.9,363.5 669.9,361.5 Q 661.9,363.5 657.9,355.5 Q 661.9,347.5 669.9,343.5 Z" fill="#d4edda" stroke="#28a745" stroke-width="1"/>
<title>(*SVGGenerator).drawNaturalDangerLeaf (complexity: 1)</title>
<path d="M 695.1,327.6 Q 703.1,331.6 707.1,339.6 Q 703.1,347.6 695.1,345.6 Q 687.1,347.6 683.1,339.6 Q 687.1,331.6 695.1,327.6 Z" fill="#d4edda" stroke="#28a745" stroke-width="1"/>
<title>(*SVGGenerator).drawConnection (complexity: 1)</title>
<path d="M 720.3,331.8 Q 728.3,335.8 732.3,343.8 Q 728.3,351.8 720.3,349.8 Q 712.3,351.8 708.3,343.8 Q 712.3,335.8 720.3,331.8 Z" fill="#d4edda" stroke="#28a745" stroke-width="1"/>
<title>(*SVGGenerator).drawTrunk (complexity: 1)</title>
<path d="M 700.4,315.9 Q 708.4,319.9 712.4,327.9 Q 708.4,335.9 700.4,333.9 Q 692.4,335.9 688.4,327.9 Q 692.4,319.9 700.4,315.9 Z" fill="#d4edda" stroke="#28a745" stroke-width="1"/>
<title>(*SVGGenerator).drawBranch (complexity: 1)</title>
<path d="M 725.6,320.0 Q 733.6,324.0 737.6,332.0 Q 733.6,340.0 725.6,338.0 Q 717.6,340.0 713.6,332.0 Q 717.6,324.0 725.6,320.0 Z" fill="#d4edda" stroke="#28a745" stroke-width="1"/>
<title>(*SVGGenerator).drawLeaf (complexity: 4)</title>
<path d="M 750.8,304.1 Q 758.8,308.1 762.8,316.1 Q 758.8,324.1 750.8,322.1 Q 742.8,324.1 738.8,316.1 Q 742.8,308.1 750.8,304.1 Z" fill="#d4edda" stroke="#28a745" stroke-width="1"/>
<title>(*SVGGenerator).drawHealthyLeaf (complexity: 1)</title>
<path d="M 731.0,308.2 Q 739.0,312.2 743.0,320.2 Q 739.0,328.2 731.0,326.2 Q 723.0,328.2 719.0,320.2 Q 723.0,312.2 731.0,308.2 Z" fill="#d4edda" stroke="#28a745" stroke-width="1"/>
<title>(*SVGGenerator).drawCautionLeaf (complexity: 1)</title>
<path d="M 756.2,292.4 Q 764.2,296.4 768.2,304.4 Q 764.2,312.4 756.2,310.4 Q 748.2,312.4 744.2,304.4 Q 748.2,296.4 756.2,292.4 Z" fill="#d4edda" stroke="#28a745" stroke-width="1"/>
<title>(*SVGGenerator).drawDangerLeaf (complexity: 1)</title>
<path d="M 781.3,296.5 Q 789.3,300.5 793.3,308.5 Q 789.3,316.5 781.3,314.5 Q 773.3,316.5 769.3,308.5 Q 773.3,300.5 781.3,296.5 Z" fill="#d4edda" stroke="#28a745" stroke-width="1"/>
<title>(*SVGGenerator).getNodeColor (complexity: 4)</title>
<path d="M 761.5,280.6 Q 769.5,284.6 773.5,292.6 Q 769.5,300.6 761.5,298.6 Q 753.5,300.6 749.5,292.6 Q 753.5,284.6 761.5,280.6 Z" fill="#d4edda" stroke="#28a745" stroke-width="1"/>
<title>(*SVGGenerator).getStrokeColor (complexity: 4)</title>
<path d="M 786.7,284.8 Q 794.7,288.8 798.7,296.8 Q 794.7,304.8 786.7,302.8 Q 778.7,304.8 774.7,296.8 Q 778.7,288.8 786.7,284.8 Z" fill="#d4edda" stroke="#28a745" stroke-width="1"/>
<title>(*SVGGenerator).SaveSVG (complexity: 1)</title>
<path d="M 811.9,268.9 Q 819.9,272.9 823.9,280.9 Q 819.9,288.9 811.9,286.9 Q 803.9,288.9 799.9,280.9 Q 803.9,272.9 811.9,268.9 Z" fill="#d4edda" stroke="#28a745" stroke-width="1"/>
<title>WriteFile (complexity: 1)</title>
<line x1="400.0" y1="470.0" x2="512.6" y2="535.0" stroke="#8B4513" stroke-width="7.5"/>
<path d="M 422.5,483.7 L 426.5,485.7 L 432.5,489.7 L 428.5,493.7 L 430.5,497.7 L 422.5,495.7 L 414.5,497.7 L 416.5,493.7 L 412.5,489.7 L 418.5,485.7 Z" fill="#f8d7da" stroke="#dc3545" stroke-width="1"/>
<title>SuperComplexProcessor (complexity: 23)</title>
<path d="M 475.1,515.3 L 479.1,517.3 L 485.1,521.3 L 481.1,525.3 L 483.1,529.3 L 475.1,527.3 L 467.1,529.3 L 469.1,525.3 L 465.1,521.3 L 471.1,517.3 Z" fill="#f8d7da" stroke="#dc3545" stroke-width="1"/>
<title>ComplexValidation (complexity: 18)</title>
<line x1="400.0" y1="430.0" x2="534.0" y2="325.3" stroke="#8B4513" stroke-width="7.0"/>
<path d="M 404.1,403.0 Q 412.1,407.0 416.1,415.0 Q 412.1,423.0 404.1,421.0 Q 396.1,423.0 392.1,415.0 Q 396.1,407.0 404.1,403.0 Z" fill="#d4edda" stroke="#28a745" stroke-width="1"/>
<title>CheckPositive (complexity: 2)</title>
<path d="M 438.3,398.1 Q 446.3,402.1 450.3,410.1 Q 446.3,418.1 438.3,416.1 Q 430.3,418.1 426.3,410.1 Q 430.3,402.1 438.3,398.1 Z" fill="#d4edda" stroke="#28a745" stroke-width="1"/>
<title>GetGrade (complexity: 4)</title>
<path d="M 472.4,373.1 Q 480.4,377.1 484.4,385.1 Q 480.4,393.1 472.4,391.1 Q 464.4,393.1 460.4,385.1 Q 464.4,377.1 472.4,373.1 Z" fill="#d4edda" stroke="#28a745" stroke-width="1"/>
<title>ProcessNumbers (complexity: 3)</title>
<path d="M 461.5,368.2 Q 469.5,372.2 473.5,380.2 Q 469.5,388.2 461.5,386.2 Q 453.5,388.2 449.5,380.2 Q 453.5,372.2 461.5,368.2 Z" fill="#d4edda" stroke="#28a745" stroke-width="1"/>
<title>SimpleFunction (complexity: 1)</title>
<path d="M 495.7,343.2 Q 503.7,347.2 507.7,355.2 Q 503.7,363.2 495.7,361.2 Q 487.7,363.2 483.7,355.2 Q 487.7,347.2 495.7,343.2 Z" fill="#d4edda" stroke="#28a745" stroke-width="1"/>
<title>AddTwoNumbers (complexity: 1)</title>
<path d="M 529.8,338.3 Q 537.8,342.3 541.8,350.3 Q 537.8,358.3 529.8,356.3 Q 521.8,358.3 517.8,350.3 Q 521.8,342.3 529.8,338.3 Z" fill="#d4edda" stroke="#28a745" stroke-width="1"/>
<title>GreetUser (complexity: 1)</title>
<line x1="400.0" y1="390.0" x2="514.3" y2="479.3" stroke="#8B4513" stroke-width="6.5"/>
<path d="M 404.0,394.9 Q 414.0,398.9 418.0,406.9 Q 410.0,414.9 404.0,412.9 Q 398.0,414.9 390.0,406.9 Q 394.0,398.9 404.0,394.9 Z" fill="#fff3cd" stroke="#ffc107" stroke-width="1"/>
<title>ValidateInput (complexity: 7)</title>
<path d="M 438.1,419.8 Q 448.1,423.8 452.1,431.8 Q 444.1,439.8 438.1,437.8 Q 432.1,439.8 424.1,431.8 Q 428.1,423.8 438.1,419.8 Z" fill="#fff3cd" stroke="#ffc107" stroke-width="1"/>
<title>CalculateDiscount (complexity: 6)</title>
<path d="M 472.1,422.6 Q 480.1,426.6 484.1,434.6 Q 480.1,442.6 472.1,440.6 Q 464.1,442.6 460.1,434.6 Q 464.1,426.6 472.1,422.6 Z" fill="#d4edda" stroke="#28a745" stroke-width="1"/>
<title>FindPattern (complexity: 5)</title>
<path d="M 461.2,449.5 Q 471.2,453.5 475.2,461.5 Q 467.2,469.5 461.2,467.5 Q 455.2,469.5 447.2,461.5 Q 451.2,453.5 461.2,449.5 Z" fill="#fff3cd" stroke="#ffc107" stroke-width="1"/>
<title>ProcessMatrix (complexity: 7)</title>
<path d="M 495.2,456.4 L 499.2,458.4 L 505.2,462.4 L 501.2,466.4 L 503.2,470.4 L 495.2,468.4 L 487.2,470.4 L 489.2,466.4 L 485.2,462.4 L 491.2,458.4 Z" fill="#f8d7da" stroke="#dc3545" stroke-width="1"/>
<title>ValidateAndProcess (complexity: 13)</title>
</svg>
